<svg xmlns="http://www.w3.org/2000/svg" xmlns:xlink="http://www.w3.org/1999/xlink" width="500" zoomAndPan="magnify" viewBox="0 0 375 299.999988" height="400" preserveAspectRatio="xMidYMid meet" version="1.0"><defs><g/></defs><path fill="#5d6956" d="M 274.207031 112.527344 C 270.078125 112.527344 262.429688 113.328125 256.722656 114.566406 C 255.167969 114.835938 253.6875 115.125 252.375 115.464844 C 251.742188 115.320312 251.183594 114.859375 250.988281 114.203125 C 250.773438 113.5 250.503906 113.085938 250.1875 113.085938 C 249.847656 113.085938 249.386719 113.597656 249.023438 114.421875 C 248.878906 114.058594 248.683594 113.863281 248.488281 113.863281 C 248.222656 113.863281 247.832031 114.300781 247.492188 114.980469 L 247.492188 114.324219 L 244.601562 114.324219 C 243.800781 99.585938 238.046875 85.621094 228.140625 74.597656 L 230.179688 72.558594 L 229.71875 72.09375 C 230.445312 72.363281 231.003906 72.386719 231.199219 72.191406 C 231.34375 72.046875 231.320312 71.78125 231.175781 71.414062 C 232.023438 71.730469 232.703125 71.753906 232.949219 71.535156 C 233.164062 71.316406 233.070312 70.832031 232.730469 70.175781 C 232.390625 69.546875 232.460938 68.839844 232.824219 68.28125 C 233.96875 67.601562 235.253906 66.753906 236.542969 65.855469 C 241.445312 62.699219 247.421875 57.839844 250.335938 54.925781 C 255.96875 49.292969 248.441406 41.835938 242.855469 47.445312 C 239.941406 50.359375 235.085938 56.335938 231.925781 61.265625 C 231.003906 62.550781 230.179688 63.816406 229.5 64.957031 C 228.941406 65.320312 228.234375 65.367188 227.605469 65.054688 C 226.972656 64.714844 226.464844 64.617188 226.246094 64.835938 C 226.003906 65.078125 226.050781 65.757812 226.367188 66.605469 C 226.003906 66.460938 225.734375 66.4375 225.589844 66.582031 C 225.394531 66.777344 225.417969 67.359375 225.6875 68.0625 L 225.226562 67.601562 L 223.183594 69.644531 C 212.9375 60.4375 200.042969 54.730469 186.25 53.398438 C 185.328125 53.300781 184.378906 53.25 183.457031 53.179688 L 183.457031 50.289062 L 182.800781 50.289062 C 183.503906 49.972656 183.917969 49.585938 183.917969 49.292969 C 183.917969 49.097656 183.699219 48.929688 183.359375 48.757812 C 184.183594 48.371094 184.695312 47.910156 184.695312 47.59375 C 184.695312 47.277344 184.28125 47.011719 183.578125 46.792969 C 182.898438 46.574219 182.4375 46.039062 182.316406 45.382812 C 182.65625 44.097656 182.945312 42.613281 183.214844 41.0625 C 184.453125 35.355469 185.253906 27.679688 185.253906 23.550781 C 185.253906 15.585938 174.667969 15.636719 174.667969 23.550781 C 174.667969 27.679688 175.46875 35.328125 176.707031 41.035156 C 176.972656 42.589844 177.265625 44.070312 177.605469 45.382812 C 177.457031 46.015625 176.996094 46.574219 176.339844 46.792969 C 175.636719 47.011719 175.226562 47.277344 175.226562 47.59375 C 175.226562 47.933594 175.734375 48.394531 176.558594 48.757812 C 176.195312 48.902344 176 49.097656 176 49.292969 C 176 49.585938 176.4375 49.949219 177.117188 50.289062 L 176.464844 50.289062 L 176.464844 53.179688 C 161.238281 54.003906 147.417969 60.097656 136.757812 69.667969 L 134.695312 67.601562 L 134.234375 68.0625 C 134.5 67.359375 134.523438 66.777344 134.332031 66.582031 C 134.183594 66.4375 133.917969 66.460938 133.554688 66.605469 C 133.871094 65.757812 133.917969 65.078125 133.675781 64.835938 C 133.457031 64.617188 132.972656 64.714844 132.316406 65.054688 C 131.683594 65.367188 130.980469 65.320312 130.421875 64.957031 C 129.742188 63.816406 128.914062 62.550781 127.992188 61.265625 C 124.8125 56.335938 119.980469 50.359375 117.066406 47.445312 C 111.429688 41.8125 103.976562 49.339844 109.585938 54.925781 C 112.5 57.839844 118.472656 62.699219 123.378906 65.855469 C 124.664062 66.777344 125.929688 67.601562 127.09375 68.28125 C 127.433594 68.839844 127.507812 69.546875 127.191406 70.175781 C 126.851562 70.832031 126.753906 71.316406 126.972656 71.535156 C 127.214844 71.78125 127.894531 71.730469 128.746094 71.414062 C 128.601562 71.78125 128.574219 72.046875 128.722656 72.191406 C 128.914062 72.386719 129.5 72.363281 130.203125 72.09375 L 129.742188 72.558594 L 131.804688 74.621094 C 122.238281 85.28125 116.140625 99.125 115.316406 114.324219 L 112.425781 114.324219 L 112.425781 114.980469 C 112.109375 114.277344 111.722656 113.863281 111.429688 113.863281 C 111.238281 113.863281 111.042969 114.082031 110.898438 114.421875 C 110.507812 113.597656 110.046875 113.085938 109.730469 113.085938 C 109.414062 113.085938 109.148438 113.5 108.929688 114.203125 C 108.710938 114.882812 108.175781 115.34375 107.546875 115.464844 C 106.257812 115.125 104.777344 114.835938 103.222656 114.566406 C 97.492188 113.328125 89.84375 112.527344 85.714844 112.527344 C 77.75 112.527344 77.796875 123.117188 85.714844 123.117188 C 89.84375 123.117188 97.492188 122.3125 103.199219 121.074219 C 104.753906 120.808594 106.234375 120.515625 107.546875 120.175781 C 108.175781 120.324219 108.734375 120.785156 108.929688 121.441406 C 109.148438 122.144531 109.414062 122.558594 109.730469 122.558594 C 110.070312 122.558594 110.53125 122.046875 110.898438 121.222656 C 111.042969 121.585938 111.238281 121.78125 111.429688 121.78125 C 111.722656 121.78125 112.085938 121.34375 112.425781 120.664062 L 112.425781 121.320312 L 115.316406 121.320312 C 116.140625 136.542969 122.238281 150.363281 131.804688 161.023438 L 129.742188 163.085938 L 130.203125 163.546875 C 129.472656 163.28125 128.914062 163.257812 128.722656 163.449219 C 128.574219 163.597656 128.601562 163.863281 128.746094 164.226562 C 127.894531 163.914062 127.214844 163.863281 126.972656 164.105469 C 126.753906 164.324219 126.851562 164.8125 127.191406 165.464844 C 127.507812 166.097656 127.457031 166.800781 127.09375 167.359375 C 125.953125 168.039062 124.691406 168.867188 123.402344 169.789062 C 118.496094 172.945312 112.5 177.800781 109.585938 180.714844 C 103.953125 186.351562 111.480469 193.804688 117.066406 188.195312 C 119.980469 185.28125 124.835938 179.308594 127.992188 174.402344 C 128.914062 173.117188 129.742188 171.851562 130.421875 170.6875 C 130.980469 170.324219 131.683594 170.273438 132.316406 170.589844 C 132.945312 170.929688 133.457031 171.027344 133.675781 170.808594 C 133.917969 170.566406 133.871094 169.886719 133.554688 169.035156 C 133.917969 169.183594 134.183594 169.207031 134.332031 169.058594 C 134.523438 168.867188 134.5 168.285156 134.234375 167.578125 L 134.695312 168.039062 L 136.757812 165.976562 C 147.417969 175.542969 161.261719 181.640625 176.464844 182.464844 L 176.464844 185.355469 L 177.117188 185.355469 C 176.414062 185.671875 176 186.058594 176 186.351562 C 176 186.542969 176.21875 186.738281 176.558594 186.886719 C 175.734375 187.273438 175.226562 187.734375 175.226562 188.050781 C 175.226562 188.34375 175.636719 188.632812 176.339844 188.851562 C 176.996094 189.046875 177.484375 189.605469 177.605469 190.234375 C 177.265625 191.523438 176.972656 193.003906 176.707031 194.558594 C 175.46875 200.265625 174.667969 207.9375 174.667969 212.066406 C 174.667969 220.03125 185.253906 219.984375 185.253906 212.066406 C 185.253906 207.9375 184.453125 200.289062 183.214844 194.582031 C 182.945312 193.027344 182.65625 191.546875 182.316406 190.234375 C 182.460938 189.605469 182.921875 189.046875 183.578125 188.851562 C 184.28125 188.632812 184.695312 188.367188 184.695312 188.050781 C 184.695312 187.710938 184.183594 187.25 183.359375 186.886719 C 183.722656 186.738281 183.917969 186.542969 183.917969 186.351562 C 183.917969 186.058594 183.480469 185.695312 182.800781 185.355469 L 183.457031 185.355469 L 183.457031 182.464844 C 198.683594 181.640625 212.5 175.542969 223.160156 165.976562 L 225.226562 168.039062 L 225.6875 167.578125 C 225.417969 168.285156 225.394531 168.867188 225.589844 169.058594 C 225.734375 169.207031 226.003906 169.183594 226.367188 169.035156 C 226.050781 169.886719 226.003906 170.566406 226.246094 170.808594 C 226.464844 171.027344 226.949219 170.929688 227.605469 170.589844 C 228.234375 170.273438 228.941406 170.324219 229.5 170.6875 C 230.179688 171.828125 231.003906 173.089844 231.925781 174.378906 C 235.085938 179.285156 239.941406 185.28125 242.855469 188.195312 C 248.488281 193.828125 255.945312 186.300781 250.335938 180.714844 C 247.421875 177.800781 241.445312 172.945312 236.542969 169.789062 C 235.253906 168.867188 233.992188 168.039062 232.851562 167.359375 C 232.484375 166.800781 232.4375 166.097656 232.753906 165.464844 C 233.09375 164.835938 233.191406 164.324219 232.972656 164.105469 C 232.730469 163.863281 232.046875 163.914062 231.199219 164.226562 C 231.34375 163.863281 231.367188 163.597656 231.222656 163.449219 C 231.027344 163.257812 230.445312 163.28125 229.742188 163.546875 L 230.203125 163.085938 L 228.140625 161.023438 C 237.707031 150.363281 243.800781 136.519531 244.628906 121.320312 L 247.515625 121.320312 L 247.515625 120.664062 C 247.832031 121.367188 248.222656 121.78125 248.511719 121.78125 C 248.707031 121.78125 248.902344 121.5625 249.046875 121.222656 C 249.4375 122.046875 249.898438 122.558594 250.214844 122.558594 C 250.527344 122.558594 250.796875 122.144531 251.015625 121.441406 C 251.234375 120.761719 251.765625 120.296875 252.421875 120.175781 C 253.710938 120.515625 255.191406 120.808594 256.746094 121.074219 C 262.453125 122.3125 270.125 123.117188 274.253906 123.117188 C 282.171875 123.117188 282.121094 112.527344 274.207031 112.527344 Z M 218.8125 150.53125 C 217.890625 150.121094 216.75 149.753906 215.632812 149.316406 C 211.214844 147.640625 212.597656 143.734375 205.796875 136.859375 C 208.832031 132.757812 210.921875 127.898438 211.722656 122.628906 C 218.183594 122.605469 221.144531 120.90625 223.671875 120.371094 L 226.316406 120.371094 C 226.683594 120.46875 227.070312 120.589844 227.460938 120.785156 C 228.578125 121.292969 229.644531 121.828125 230.589844 122.191406 C 229.667969 132.925781 225.394531 142.710938 218.8125 150.53125 Z M 214.539062 86.835938 C 214.855469 86.640625 215.21875 86.472656 215.632812 86.300781 C 216.773438 85.863281 217.914062 85.5 218.839844 85.085938 C 225.613281 93.125 229.691406 103.007812 230.589844 113.449219 C 229.644531 113.816406 228.578125 114.347656 227.460938 114.859375 C 227.070312 115.054688 226.683594 115.175781 226.316406 115.273438 L 223.648438 115.273438 C 221.121094 114.738281 218.183594 113.0625 211.699219 113.011719 C 210.898438 107.742188 208.832031 102.886719 205.773438 98.785156 C 210.339844 94.167969 211.214844 90.890625 212.644531 88.730469 Z M 201.597656 117.820312 C 201.597656 129.769531 191.882812 139.484375 179.9375 139.484375 C 167.988281 139.484375 158.273438 129.769531 158.273438 117.820312 C 158.273438 105.875 167.988281 96.160156 179.9375 96.160156 C 191.882812 96.160156 201.597656 105.875 201.597656 117.820312 Z M 176.996094 70.296875 C 177.191406 70.710938 177.3125 71.074219 177.410156 71.441406 L 177.410156 74.085938 C 176.875 76.613281 175.199219 79.550781 175.152344 86.035156 C 169.882812 86.835938 165.027344 88.925781 160.921875 91.960938 C 156.308594 87.394531 153.03125 86.519531 150.867188 85.085938 L 149 83.21875 C 148.804688 82.902344 148.632812 82.539062 148.464844 82.125 C 148.027344 81.007812 147.664062 79.867188 147.25 78.941406 C 155.042969 72.363281 164.855469 68.089844 175.613281 67.164062 C 175.953125 68.113281 176.488281 69.207031 176.996094 70.296875 Z M 141.082031 85.085938 C 142.003906 85.5 143.144531 85.863281 144.261719 86.300781 C 144.675781 86.445312 145.039062 86.640625 145.355469 86.835938 L 147.226562 88.707031 C 148.660156 90.867188 149.53125 94.144531 154.097656 98.757812 C 151.0625 102.863281 148.972656 107.71875 148.171875 112.988281 C 141.714844 113.011719 138.75 114.714844 136.226562 115.246094 L 133.554688 115.246094 C 133.1875 115.152344 132.800781 115.027344 132.414062 114.835938 C 131.320312 114.347656 130.226562 113.789062 129.28125 113.425781 C 130.226562 102.691406 134.5 92.90625 141.082031 85.085938 Z M 132.4375 120.761719 C 132.847656 120.589844 133.214844 120.445312 133.578125 120.347656 L 136.25 120.347656 C 138.773438 120.882812 141.714844 122.558594 148.195312 122.605469 C 149 127.875 151.085938 132.730469 154.121094 136.835938 C 149.558594 141.449219 148.683594 144.703125 147.25 146.890625 L 145.355469 148.785156 C 145.039062 148.976562 144.675781 149.148438 144.261719 149.316406 C 143.144531 149.753906 142.003906 150.117188 141.082031 150.53125 C 134.5 142.738281 130.226562 132.925781 129.304688 122.167969 C 130.25 121.804688 131.320312 121.269531 132.4375 120.761719 Z M 148.441406 153.496094 C 148.585938 153.082031 148.78125 152.71875 148.972656 152.402344 L 150.84375 150.53125 C 153.003906 149.125 156.285156 148.226562 160.898438 143.660156 C 165 146.695312 169.859375 148.785156 175.128906 149.585938 C 175.152344 156.070312 176.851562 159.007812 177.386719 161.53125 L 177.386719 164.203125 C 177.289062 164.566406 177.167969 164.957031 176.972656 165.34375 C 176.488281 166.4375 175.929688 167.53125 175.566406 168.476562 C 164.808594 167.554688 155.019531 163.28125 147.203125 156.699219 C 147.636719 155.753906 148.027344 154.613281 148.441406 153.496094 Z M 182.898438 165.320312 C 182.726562 164.90625 182.582031 164.542969 182.511719 164.179688 L 182.511719 161.507812 C 183.042969 158.984375 184.71875 156.042969 184.769531 149.5625 C 190.039062 148.757812 194.894531 146.695312 199 143.636719 C 205.871094 150.433594 209.78125 149.050781 211.457031 153.46875 C 211.867188 154.585938 212.257812 155.730469 212.671875 156.652344 C 204.875 163.230469 195.066406 167.507812 184.308594 168.429688 C 183.941406 167.507812 183.410156 166.4375 182.898438 165.320312 Z M 212.671875 78.917969 C 212.257812 79.84375 211.867188 80.984375 211.457031 82.125 C 211.308594 82.539062 211.117188 82.902344 210.921875 83.21875 L 209.027344 85.113281 C 206.867188 86.519531 203.589844 87.417969 198.972656 91.984375 C 194.871094 88.949219 190.011719 86.859375 184.742188 86.058594 C 184.71875 79.597656 183.019531 76.660156 182.484375 74.109375 L 182.484375 71.441406 C 182.582031 71.074219 182.703125 70.6875 182.875 70.296875 C 183.382812 69.207031 183.917969 68.113281 184.28125 67.164062 C 184.476562 67.191406 184.695312 67.191406 184.890625 67.214844 C 195.1875 68.210938 204.851562 72.3125 212.671875 78.917969 Z M 212.671875 78.917969 " fill-opacity="1" fill-rule="nonzero"/><g fill="#5d6956" fill-opacity="1"><g transform="translate(168.766971, 267.04755)"><g><path d="M 24.546875 -42.265625 L 41.609375 0 L 31.25 0 L 28.125 -8.453125 L 12.046875 -8.453125 L 8.921875 0 L -1.4375 0 L 15.625 -42.265625 Z M 24.84375 -16.90625 L 20.140625 -29.203125 L 20.03125 -29.203125 L 15.3125 -16.90625 Z M 24.84375 -16.90625 "/></g></g></g><g fill="#5d6956" fill-opacity="1"><g transform="translate(205.90369, 267.04755)"><g><path d="M 30.125 -23.03125 C 32.582031 -20.351562 33.8125 -17.066406 33.8125 -13.171875 C 33.8125 -9.273438 32.582031 -5.976562 30.125 -3.28125 C 27.664062 -0.582031 24.539062 0.765625 20.75 0.765625 C 17.269531 0.765625 14.398438 -0.328125 12.140625 -2.515625 L 12.140625 13.328125 L 3.078125 13.328125 L 3.078125 -26.28125 L 12.046875 -26.28125 L 12.046875 -23.3125 L 12.140625 -23.3125 C 14.398438 -25.800781 17.269531 -27.046875 20.75 -27.046875 C 24.539062 -27.046875 27.664062 -25.707031 30.125 -23.03125 Z M 22.40625 -8.703125 C 23.59375 -9.867188 24.1875 -11.351562 24.1875 -13.15625 C 24.1875 -14.96875 23.617188 -16.445312 22.484375 -17.59375 C 21.359375 -18.738281 19.875 -19.3125 18.03125 -19.3125 C 16.257812 -19.3125 14.800781 -18.726562 13.65625 -17.5625 C 12.507812 -16.40625 11.9375 -14.941406 11.9375 -13.171875 C 11.9375 -11.359375 12.523438 -9.867188 13.703125 -8.703125 C 14.878906 -7.546875 16.320312 -6.96875 18.03125 -6.96875 C 19.769531 -6.96875 21.226562 -7.546875 22.40625 -8.703125 Z M 22.40625 -8.703125 "/></g></g></g><g fill="#5d6956" fill-opacity="1"><g transform="translate(237.866752, 267.04755)"><g><path d="M 30.125 -23.03125 C 32.582031 -20.351562 33.8125 -17.066406 33.8125 -13.171875 C 33.8125 -9.273438 32.582031 -5.976562 30.125 -3.28125 C 27.664062 -0.582031 24.539062 0.765625 20.75 0.765625 C 17.269531 0.765625 14.398438 -0.328125 12.140625 -2.515625 L 12.140625 13.328125 L 3.078125 13.328125 L 3.078125 -26.28125 L 12.046875 -26.28125 L 12.046875 -23.3125 L 12.140625 -23.3125 C 14.398438 -25.800781 17.269531 -27.046875 20.75 -27.046875 C 24.539062 -27.046875 27.664062 -25.707031 30.125 -23.03125 Z M 22.40625 -8.703125 C 23.59375 -9.867188 24.1875 -11.351562 24.1875 -13.15625 C 24.1875 -14.96875 23.617188 -16.445312 22.484375 -17.59375 C 21.359375 -18.738281 19.875 -19.3125 18.03125 -19.3125 C 16.257812 -19.3125 14.800781 -18.726562 13.65625 -17.5625 C 12.507812 -16.40625 11.9375 -14.941406 11.9375 -13.171875 C 11.9375 -11.359375 12.523438 -9.867188 13.703125 -8.703125 C 14.878906 -7.546875 16.320312 -6.96875 18.03125 -6.96875 C 19.769531 -6.96875 21.226562 -7.546875 22.40625 -8.703125 Z M 22.40625 -8.703125 "/></g></g></g><g fill="#5d6956" fill-opacity="1"><g transform="translate(269.829815, 267.04755)"><g><path d="M 4.859375 -3.25 C 2.398438 -5.9375 1.171875 -9.222656 1.171875 -13.109375 C 1.171875 -17.003906 2.398438 -20.300781 4.859375 -23 C 7.328125 -25.695312 10.457031 -27.046875 14.25 -27.046875 C 17.726562 -27.046875 20.59375 -25.953125 22.84375 -23.765625 L 22.84375 -26.28125 L 31.921875 -26.28125 L 31.921875 0 L 22.953125 0 L 22.953125 -2.96875 L 22.84375 -2.96875 C 20.59375 -0.476562 17.726562 0.765625 14.25 0.765625 C 10.457031 0.765625 7.328125 -0.570312 4.859375 -3.25 Z M 12.578125 -17.5625 C 11.398438 -16.40625 10.8125 -14.921875 10.8125 -13.109375 C 10.8125 -11.304688 11.375 -9.832031 12.5 -8.6875 C 13.625 -7.539062 15.109375 -6.96875 16.953125 -6.96875 C 18.734375 -6.96875 20.195312 -7.546875 21.34375 -8.703125 C 22.488281 -9.867188 23.0625 -11.335938 23.0625 -13.109375 C 23.0625 -14.921875 22.46875 -16.40625 21.28125 -17.5625 C 20.101562 -18.726562 18.660156 -19.3125 16.953125 -19.3125 C 15.210938 -19.3125 13.753906 -18.726562 12.578125 -17.5625 Z M 12.578125 -17.5625 "/></g></g></g><g fill="#5d6956" fill-opacity="1"><g transform="translate(301.792878, 267.04755)"><g><path d="M 3.078125 0 L 3.078125 -26.28125 L 12.140625 -26.28125 L 12.140625 -22.484375 L 12.25 -22.484375 C 12.3125 -22.628906 12.421875 -22.800781 12.578125 -23 C 12.734375 -23.207031 13.066406 -23.566406 13.578125 -24.078125 C 14.085938 -24.585938 14.632812 -25.046875 15.21875 -25.453125 C 15.800781 -25.867188 16.550781 -26.238281 17.46875 -26.5625 C 18.394531 -26.882812 19.332031 -27.046875 20.28125 -27.046875 C 21.28125 -27.046875 22.253906 -26.910156 23.203125 -26.640625 C 24.160156 -26.367188 24.863281 -26.097656 25.3125 -25.828125 L 26.03125 -25.40625 L 22.234375 -17.734375 C 21.109375 -18.679688 19.535156 -19.15625 17.515625 -19.15625 C 16.421875 -19.15625 15.484375 -18.914062 14.703125 -18.4375 C 13.921875 -17.96875 13.363281 -17.390625 13.03125 -16.703125 C 12.707031 -16.015625 12.476562 -15.429688 12.34375 -14.953125 C 12.207031 -14.484375 12.140625 -14.109375 12.140625 -13.828125 L 12.140625 0 Z M 3.078125 0 "/></g></g></g><g fill="#5d6956" fill-opacity="1"><g transform="translate(324.279445, 267.04755)"><g><path d="M 29.671875 -11.890625 L 10.609375 -11.890625 C 10.609375 -10.046875 11.203125 -8.675781 12.390625 -7.78125 C 13.585938 -6.894531 14.890625 -6.453125 16.296875 -6.453125 C 17.765625 -6.453125 18.925781 -6.648438 19.78125 -7.046875 C 20.632812 -7.441406 21.609375 -8.21875 22.703125 -9.375 L 29.25 -6.09375 C 26.519531 -1.519531 21.976562 0.765625 15.625 0.765625 C 11.664062 0.765625 8.265625 -0.585938 5.421875 -3.296875 C 2.585938 -6.015625 1.171875 -9.285156 1.171875 -13.109375 C 1.171875 -16.941406 2.585938 -20.222656 5.421875 -22.953125 C 8.265625 -25.679688 11.664062 -27.046875 15.625 -27.046875 C 19.789062 -27.046875 23.179688 -25.84375 25.796875 -23.4375 C 28.410156 -21.03125 29.71875 -17.585938 29.71875 -13.109375 C 29.71875 -12.492188 29.703125 -12.085938 29.671875 -11.890625 Z M 10.859375 -16.90625 L 20.859375 -16.90625 C 20.648438 -18.269531 20.109375 -19.316406 19.234375 -20.046875 C 18.367188 -20.785156 17.25 -21.15625 15.875 -21.15625 C 14.375 -21.15625 13.179688 -20.757812 12.296875 -19.96875 C 11.410156 -19.1875 10.929688 -18.164062 10.859375 -16.90625 Z M 10.859375 -16.90625 "/></g></g></g><g fill="#5d6956" fill-opacity="1"><g transform="translate(352.144565, 267.04755)"><g><path d="M 3.078125 0 L 3.078125 -44.0625 L 12.140625 -44.0625 L 12.140625 0 Z M 3.078125 0 "/></g></g></g><g fill="#ff6825" fill-opacity="0.4"><g transform="translate(4.102081, 267.04755)"><g><path d="M 18.65625 -43.03125 C 20.9375 -43.03125 23.171875 -42.695312 25.359375 -42.03125 C 27.546875 -41.363281 29.171875 -40.707031 30.234375 -40.0625 L 31.765625 -39.046875 L 27.875 -31.359375 C 27.5625 -31.554688 27.128906 -31.816406 26.578125 -32.140625 C 26.035156 -32.472656 25.015625 -32.910156 23.515625 -33.453125 C 22.015625 -34.003906 20.613281 -34.28125 19.3125 -34.28125 C 17.707031 -34.28125 16.46875 -33.9375 15.59375 -33.25 C 14.726562 -32.5625 14.296875 -31.640625 14.296875 -30.484375 C 14.296875 -29.898438 14.5 -29.359375 14.90625 -28.859375 C 15.320312 -28.367188 16.023438 -27.84375 17.015625 -27.28125 C 18.003906 -26.71875 18.875 -26.265625 19.625 -25.921875 C 20.375 -25.578125 21.535156 -25.066406 23.109375 -24.390625 C 25.835938 -23.222656 28.164062 -21.640625 30.09375 -19.640625 C 32.03125 -17.648438 33 -15.390625 33 -12.859375 C 33 -10.429688 32.5625 -8.3125 31.6875 -6.5 C 30.8125 -4.695312 29.613281 -3.28125 28.09375 -2.25 C 26.582031 -1.226562 24.898438 -0.472656 23.046875 0.015625 C 21.203125 0.515625 19.207031 0.765625 17.0625 0.765625 C 15.21875 0.765625 13.40625 0.578125 11.625 0.203125 C 9.851562 -0.171875 8.367188 -0.640625 7.171875 -1.203125 C 5.972656 -1.765625 4.894531 -2.316406 3.9375 -2.859375 C 2.988281 -3.410156 2.289062 -3.875 1.84375 -4.25 L 1.171875 -4.8125 L 6 -12.90625 C 6.40625 -12.570312 6.96875 -12.140625 7.6875 -11.609375 C 8.40625 -11.078125 9.675781 -10.363281 11.5 -9.46875 C 13.332031 -8.582031 14.945312 -8.140625 16.34375 -8.140625 C 20.40625 -8.140625 22.4375 -9.523438 22.4375 -12.296875 C 22.4375 -12.878906 22.289062 -13.414062 22 -13.90625 C 21.707031 -14.40625 21.191406 -14.898438 20.453125 -15.390625 C 19.722656 -15.890625 19.078125 -16.285156 18.515625 -16.578125 C 17.953125 -16.867188 17.03125 -17.3125 15.75 -17.90625 C 14.46875 -18.5 13.519531 -18.953125 12.90625 -19.265625 C 10.34375 -20.523438 8.363281 -22.101562 6.96875 -24 C 5.570312 -25.894531 4.875 -27.9375 4.875 -30.125 C 4.875 -33.914062 6.269531 -37.015625 9.0625 -39.421875 C 11.863281 -41.828125 15.0625 -43.03125 18.65625 -43.03125 Z M 18.65625 -43.03125 "/></g></g></g><g fill="#ff6825" fill-opacity="0.4"><g transform="translate(35.501672, 267.04755)"><g><path d="M 30.125 -23.03125 C 32.582031 -20.351562 33.8125 -17.066406 33.8125 -13.171875 C 33.8125 -9.273438 32.582031 -5.976562 30.125 -3.28125 C 27.664062 -0.582031 24.539062 0.765625 20.75 0.765625 C 17.269531 0.765625 14.398438 -0.328125 12.140625 -2.515625 L 12.140625 13.328125 L 3.078125 13.328125 L 3.078125 -26.28125 L 12.046875 -26.28125 L 12.046875 -23.3125 L 12.140625 -23.3125 C 14.398438 -25.800781 17.269531 -27.046875 20.75 -27.046875 C 24.539062 -27.046875 27.664062 -25.707031 30.125 -23.03125 Z M 22.40625 -8.703125 C 23.59375 -9.867188 24.1875 -11.351562 24.1875 -13.15625 C 24.1875 -14.96875 23.617188 -16.445312 22.484375 -17.59375 C 21.359375 -18.738281 19.875 -19.3125 18.03125 -19.3125 C 16.257812 -19.3125 14.800781 -18.726562 13.65625 -17.5625 C 12.507812 -16.40625 11.9375 -14.941406 11.9375 -13.171875 C 11.9375 -11.359375 12.523438 -9.867188 13.703125 -8.703125 C 14.878906 -7.546875 16.320312 -6.96875 18.03125 -6.96875 C 19.769531 -6.96875 21.226562 -7.546875 22.40625 -8.703125 Z M 22.40625 -8.703125 "/></g></g></g><g fill="#ff6825" fill-opacity="0.4"><g transform="translate(67.464735, 267.04755)"><g><path d="M 5.546875 -3.125 C 2.628906 -5.71875 1.171875 -9.046875 1.171875 -13.109375 C 1.171875 -17.179688 2.691406 -20.519531 5.734375 -23.125 C 8.773438 -25.738281 12.535156 -27.046875 17.015625 -27.046875 C 21.421875 -27.046875 25.132812 -25.726562 28.15625 -23.09375 C 31.175781 -20.46875 32.6875 -17.140625 32.6875 -13.109375 C 32.6875 -9.085938 31.207031 -5.769531 28.25 -3.15625 C 25.300781 -0.539062 21.554688 0.765625 17.015625 0.765625 C 12.296875 0.765625 8.472656 -0.53125 5.546875 -3.125 Z M 12.578125 -17.5625 C 11.398438 -16.40625 10.8125 -14.921875 10.8125 -13.109375 C 10.8125 -11.304688 11.375 -9.832031 12.5 -8.6875 C 13.625 -7.539062 15.109375 -6.96875 16.953125 -6.96875 C 18.734375 -6.96875 20.195312 -7.546875 21.34375 -8.703125 C 22.488281 -9.867188 23.0625 -11.335938 23.0625 -13.109375 C 23.0625 -14.921875 22.46875 -16.40625 21.28125 -17.5625 C 20.101562 -18.726562 18.660156 -19.3125 16.953125 -19.3125 C 15.210938 -19.3125 13.753906 -18.726562 12.578125 -17.5625 Z M 12.578125 -17.5625 "/></g></g></g><g fill="#ff6825" fill-opacity="0.4"><g transform="translate(98.300852, 267.04755)"><g><path d="M 3.078125 0 L 3.078125 -26.28125 L 12.140625 -26.28125 L 12.140625 -22.484375 L 12.25 -22.484375 C 12.3125 -22.628906 12.421875 -22.800781 12.578125 -23 C 12.734375 -23.207031 13.066406 -23.566406 13.578125 -24.078125 C 14.085938 -24.585938 14.632812 -25.046875 15.21875 -25.453125 C 15.800781 -25.867188 16.550781 -26.238281 17.46875 -26.5625 C 18.394531 -26.882812 19.332031 -27.046875 20.28125 -27.046875 C 21.28125 -27.046875 22.253906 -26.910156 23.203125 -26.640625 C 24.160156 -26.367188 24.863281 -26.097656 25.3125 -25.828125 L 26.03125 -25.40625 L 22.234375 -17.734375 C 21.109375 -18.679688 19.535156 -19.15625 17.515625 -19.15625 C 16.421875 -19.15625 15.484375 -18.914062 14.703125 -18.4375 C 13.921875 -17.96875 13.363281 -17.390625 13.03125 -16.703125 C 12.707031 -16.015625 12.476562 -15.429688 12.34375 -14.953125 C 12.207031 -14.484375 12.140625 -14.109375 12.140625 -13.828125 L 12.140625 0 Z M 3.078125 0 "/></g></g></g><g fill="#ff6825" fill-opacity="0.4"><g transform="translate(120.787411, 267.04755)"><g><path d="M 4.609375 -26.28125 L 4.609375 -36.0625 L 13.671875 -36.0625 L 13.671875 -26.28125 L 19.21875 -26.28125 L 19.21875 -19.359375 L 13.671875 -19.359375 L 13.671875 -11.015625 C 13.671875 -8.585938 14.359375 -7.375 15.734375 -7.375 C 16.066406 -7.375 16.421875 -7.441406 16.796875 -7.578125 C 17.179688 -7.710938 17.472656 -7.851562 17.671875 -8 L 17.984375 -8.203125 L 20.234375 -0.875 C 18.285156 0.21875 16.066406 0.765625 13.578125 0.765625 C 11.867188 0.765625 10.398438 0.46875 9.171875 -0.125 C 7.941406 -0.726562 7.007812 -1.53125 6.375 -2.53125 C 5.75 -3.539062 5.296875 -4.597656 5.015625 -5.703125 C 4.742188 -6.816406 4.609375 -8.007812 4.609375 -9.28125 L 4.609375 -19.359375 L 0.8125 -19.359375 L 0.8125 -26.28125 Z M 4.609375 -26.28125 "/></g></g></g><g fill="#ff6825" fill-opacity="0.4"><g transform="translate(137.997889, 267.04755)"><g><path d="M 14.5 -27.046875 C 16 -27.046875 17.484375 -26.875 18.953125 -26.53125 C 20.421875 -26.195312 21.515625 -25.859375 22.234375 -25.515625 L 23.3125 -25 L 20.34375 -19.0625 C 18.289062 -20.15625 16.34375 -20.703125 14.5 -20.703125 C 13.476562 -20.703125 12.753906 -20.585938 12.328125 -20.359375 C 11.898438 -20.140625 11.6875 -19.722656 11.6875 -19.109375 C 11.6875 -18.972656 11.703125 -18.835938 11.734375 -18.703125 C 11.765625 -18.566406 11.832031 -18.4375 11.9375 -18.3125 C 12.039062 -18.195312 12.132812 -18.09375 12.21875 -18 C 12.300781 -17.914062 12.445312 -17.820312 12.65625 -17.71875 C 12.863281 -17.625 13.023438 -17.550781 13.140625 -17.5 C 13.265625 -17.445312 13.460938 -17.367188 13.734375 -17.265625 C 14.003906 -17.160156 14.207031 -17.082031 14.34375 -17.03125 C 14.476562 -16.976562 14.707031 -16.898438 15.03125 -16.796875 C 15.363281 -16.703125 15.613281 -16.632812 15.78125 -16.59375 C 16.84375 -16.289062 17.765625 -15.953125 18.546875 -15.578125 C 19.328125 -15.203125 20.15625 -14.6875 21.03125 -14.03125 C 21.90625 -13.382812 22.578125 -12.566406 23.046875 -11.578125 C 23.523438 -10.585938 23.765625 -9.460938 23.765625 -8.203125 C 23.765625 -2.222656 19.617188 0.765625 11.328125 0.765625 C 9.441406 0.765625 7.65625 0.476562 5.96875 -0.09375 C 4.28125 -0.675781 3.0625 -1.257812 2.3125 -1.84375 L 1.171875 -2.765625 L 4.875 -8.96875 C 5.144531 -8.726562 5.5 -8.445312 5.9375 -8.125 C 6.382812 -7.800781 7.1875 -7.351562 8.34375 -6.78125 C 9.507812 -6.21875 10.519531 -5.9375 11.375 -5.9375 C 13.25 -5.9375 14.1875 -6.570312 14.1875 -7.84375 C 14.1875 -8.414062 13.945312 -8.863281 13.46875 -9.1875 C 12.988281 -9.519531 12.175781 -9.890625 11.03125 -10.296875 C 9.894531 -10.703125 9 -11.078125 8.34375 -11.421875 C 6.707031 -12.273438 5.410156 -13.238281 4.453125 -14.3125 C 3.492188 -15.394531 3.015625 -16.820312 3.015625 -18.59375 C 3.015625 -21.257812 4.046875 -23.332031 6.109375 -24.8125 C 8.179688 -26.300781 10.976562 -27.046875 14.5 -27.046875 Z M 14.5 -27.046875 "/></g></g></g><g fill="#ad6343" fill-opacity="1"><g transform="translate(4.102081, 267.04755)"><g><path d="M 18.65625 -43.03125 C 20.9375 -43.03125 23.171875 -42.695312 25.359375 -42.03125 C 27.546875 -41.363281 29.171875 -40.707031 30.234375 -40.0625 L 31.765625 -39.046875 L 27.875 -31.359375 C 27.5625 -31.554688 27.128906 -31.816406 26.578125 -32.140625 C 26.035156 -32.472656 25.015625 -32.910156 23.515625 -33.453125 C 22.015625 -34.003906 20.613281 -34.28125 19.3125 -34.28125 C 17.707031 -34.28125 16.46875 -33.9375 15.59375 -33.25 C 14.726562 -32.5625 14.296875 -31.640625 14.296875 -30.484375 C 14.296875 -29.898438 14.5 -29.359375 14.90625 -28.859375 C 15.320312 -28.367188 16.023438 -27.84375 17.015625 -27.28125 C 18.003906 -26.71875 18.875 -26.265625 19.625 -25.921875 C 20.375 -25.578125 21.535156 -25.066406 23.109375 -24.390625 C 25.835938 -23.222656 28.164062 -21.640625 30.09375 -19.640625 C 32.03125 -17.648438 33 -15.390625 33 -12.859375 C 33 -10.429688 32.5625 -8.3125 31.6875 -6.5 C 30.8125 -4.695312 29.613281 -3.28125 28.09375 -2.25 C 26.582031 -1.226562 24.898438 -0.472656 23.046875 0.015625 C 21.203125 0.515625 19.207031 0.765625 17.0625 0.765625 C 15.21875 0.765625 13.40625 0.578125 11.625 0.203125 C 9.851562 -0.171875 8.367188 -0.640625 7.171875 -1.203125 C 5.972656 -1.765625 4.894531 -2.316406 3.9375 -2.859375 C 2.988281 -3.410156 2.289062 -3.875 1.84375 -4.25 L 1.171875 -4.8125 L 6 -12.90625 C 6.40625 -12.570312 6.96875 -12.140625 7.6875 -11.609375 C 8.40625 -11.078125 9.675781 -10.363281 11.5 -9.46875 C 13.332031 -8.582031 14.945312 -8.140625 16.34375 -8.140625 C 20.40625 -8.140625 22.4375 -9.523438 22.4375 -12.296875 C 22.4375 -12.878906 22.289062 -13.414062 22 -13.90625 C 21.707031 -14.40625 21.191406 -14.898438 20.453125 -15.390625 C 19.722656 -15.890625 19.078125 -16.285156 18.515625 -16.578125 C 17.953125 -16.867188 17.03125 -17.3125 15.75 -17.90625 C 14.46875 -18.5 13.519531 -18.953125 12.90625 -19.265625 C 10.34375 -20.523438 8.363281 -22.101562 6.96875 -24 C 5.570312 -25.894531 4.875 -27.9375 4.875 -30.125 C 4.875 -33.914062 6.269531 -37.015625 9.0625 -39.421875 C 11.863281 -41.828125 15.0625 -43.03125 18.65625 -43.03125 Z M 18.65625 -43.03125 "/></g></g></g><g fill="#ad6343" fill-opacity="1"><g transform="translate(35.501672, 267.04755)"><g><path d="M 30.125 -23.03125 C 32.582031 -20.351562 33.8125 -17.066406 33.8125 -13.171875 C 33.8125 -9.273438 32.582031 -5.976562 30.125 -3.28125 C 27.664062 -0.582031 24.539062 0.765625 20.75 0.765625 C 17.269531 0.765625 14.398438 -0.328125 12.140625 -2.515625 L 12.140625 13.328125 L 3.078125 13.328125 L 3.078125 -26.28125 L 12.046875 -26.28125 L 12.046875 -23.3125 L 12.140625 -23.3125 C 14.398438 -25.800781 17.269531 -27.046875 20.75 -27.046875 C 24.539062 -27.046875 27.664062 -25.707031 30.125 -23.03125 Z M 22.40625 -8.703125 C 23.59375 -9.867188 24.1875 -11.351562 24.1875 -13.15625 C 24.1875 -14.96875 23.617188 -16.445312 22.484375 -17.59375 C 21.359375 -18.738281 19.875 -19.3125 18.03125 -19.3125 C 16.257812 -19.3125 14.800781 -18.726562 13.65625 -17.5625 C 12.507812 -16.40625 11.9375 -14.941406 11.9375 -13.171875 C 11.9375 -11.359375 12.523438 -9.867188 13.703125 -8.703125 C 14.878906 -7.546875 16.320312 -6.96875 18.03125 -6.96875 C 19.769531 -6.96875 21.226562 -7.546875 22.40625 -8.703125 Z M 22.40625 -8.703125 "/></g></g></g><g fill="#ad6343" fill-opacity="1"><g transform="translate(67.464735, 267.04755)"><g><path d="M 5.546875 -3.125 C 2.628906 -5.71875 1.171875 -9.046875 1.171875 -13.109375 C 1.171875 -17.179688 2.691406 -20.519531 5.734375 -23.125 C 8.773438 -25.738281 12.535156 -27.046875 17.015625 -27.046875 C 21.421875 -27.046875 25.132812 -25.726562 28.15625 -23.09375 C 31.175781 -20.46875 32.6875 -17.140625 32.6875 -13.109375 C 32.6875 -9.085938 31.207031 -5.769531 28.25 -3.15625 C 25.300781 -0.539062 21.554688 0.765625 17.015625 0.765625 C 12.296875 0.765625 8.472656 -0.53125 5.546875 -3.125 Z M 12.578125 -17.5625 C 11.398438 -16.40625 10.8125 -14.921875 10.8125 -13.109375 C 10.8125 -11.304688 11.375 -9.832031 12.5 -8.6875 C 13.625 -7.539062 15.109375 -6.96875 16.953125 -6.96875 C 18.734375 -6.96875 20.195312 -7.546875 21.34375 -8.703125 C 22.488281 -9.867188 23.0625 -11.335938 23.0625 -13.109375 C 23.0625 -14.921875 22.46875 -16.40625 21.28125 -17.5625 C 20.101562 -18.726562 18.660156 -19.3125 16.953125 -19.3125 C 15.210938 -19.3125 13.753906 -18.726562 12.578125 -17.5625 Z M 12.578125 -17.5625 "/></g></g></g><g fill="#ad6343" fill-opacity="1"><g transform="translate(98.300852, 267.04755)"><g><path d="M 3.078125 0 L 3.078125 -26.28125 L 12.140625 -26.28125 L 12.140625 -22.484375 L 12.25 -22.484375 C 12.3125 -22.628906 12.421875 -22.800781 12.578125 -23 C 12.734375 -23.207031 13.066406 -23.566406 13.578125 -24.078125 C 14.085938 -24.585938 14.632812 -25.046875 15.21875 -25.453125 C 15.800781 -25.867188 16.550781 -26.238281 17.46875 -26.5625 C 18.394531 -26.882812 19.332031 -27.046875 20.28125 -27.046875 C 21.28125 -27.046875 22.253906 -26.910156 23.203125 -26.640625 C 24.160156 -26.367188 24.863281 -26.097656 25.3125 -25.828125 L 26.03125 -25.40625 L 22.234375 -17.734375 C 21.109375 -18.679688 19.535156 -19.15625 17.515625 -19.15625 C 16.421875 -19.15625 15.484375 -18.914062 14.703125 -18.4375 C 13.921875 -17.96875 13.363281 -17.390625 13.03125 -16.703125 C 12.707031 -16.015625 12.476562 -15.429688 12.34375 -14.953125 C 12.207031 -14.484375 12.140625 -14.109375 12.140625 -13.828125 L 12.140625 0 Z M 3.078125 0 "/></g></g></g><g fill="#ad6343" fill-opacity="1"><g transform="translate(120.787411, 267.04755)"><g><path d="M 4.609375 -26.28125 L 4.609375 -36.0625 L 13.671875 -36.0625 L 13.671875 -26.28125 L 19.21875 -26.28125 L 19.21875 -19.359375 L 13.671875 -19.359375 L 13.671875 -11.015625 C 13.671875 -8.585938 14.359375 -7.375 15.734375 -7.375 C 16.066406 -7.375 16.421875 -7.441406 16.796875 -7.578125 C 17.179688 -7.710938 17.472656 -7.851562 17.671875 -8 L 17.984375 -8.203125 L 20.234375 -0.875 C 18.285156 0.21875 16.066406 0.765625 13.578125 0.765625 C 11.867188 0.765625 10.398438 0.46875 9.171875 -0.125 C 7.941406 -0.726562 7.007812 -1.53125 6.375 -2.53125 C 5.75 -3.539062 5.296875 -4.597656 5.015625 -5.703125 C 4.742188 -6.816406 4.609375 -8.007812 4.609375 -9.28125 L 4.609375 -19.359375 L 0.8125 -19.359375 L 0.8125 -26.28125 Z M 4.609375 -26.28125 "/></g></g></g><g fill="#ad6343" fill-opacity="1"><g transform="translate(137.997889, 267.04755)"><g><path d="M 14.5 -27.046875 C 16 -27.046875 17.484375 -26.875 18.953125 -26.53125 C 20.421875 -26.195312 21.515625 -25.859375 22.234375 -25.515625 L 23.3125 -25 L 20.34375 -19.0625 C 18.289062 -20.15625 16.34375 -20.703125 14.5 -20.703125 C 13.476562 -20.703125 12.753906 -20.585938 12.328125 -20.359375 C 11.898438 -20.140625 11.6875 -19.722656 11.6875 -19.109375 C 11.6875 -18.972656 11.703125 -18.835938 11.734375 -18.703125 C 11.765625 -18.566406 11.832031 -18.4375 11.9375 -18.3125 C 12.039062 -18.195312 12.132812 -18.09375 12.21875 -18 C 12.300781 -17.914062 12.445312 -17.820312 12.65625 -17.71875 C 12.863281 -17.625 13.023438 -17.550781 13.140625 -17.5 C 13.265625 -17.445312 13.460938 -17.367188 13.734375 -17.265625 C 14.003906 -17.160156 14.207031 -17.082031 14.34375 -17.03125 C 14.476562 -16.976562 14.707031 -16.898438 15.03125 -16.796875 C 15.363281 -16.703125 15.613281 -16.632812 15.78125 -16.59375 C 16.84375 -16.289062 17.765625 -15.953125 18.546875 -15.578125 C 19.328125 -15.203125 20.15625 -14.6875 21.03125 -14.03125 C 21.90625 -13.382812 22.578125 -12.566406 23.046875 -11.578125 C 23.523438 -10.585938 23.765625 -9.460938 23.765625 -8.203125 C 23.765625 -2.222656 19.617188 0.765625 11.328125 0.765625 C 9.441406 0.765625 7.65625 0.476562 5.96875 -0.09375 C 4.28125 -0.675781 3.0625 -1.257812 2.3125 -1.84375 L 1.171875 -2.765625 L 4.875 -8.96875 C 5.144531 -8.726562 5.5 -8.445312 5.9375 -8.125 C 6.382812 -7.800781 7.1875 -7.351562 8.34375 -6.78125 C 9.507812 -6.21875 10.519531 -5.9375 11.375 -5.9375 C 13.25 -5.9375 14.1875 -6.570312 14.1875 -7.84375 C 14.1875 -8.414062 13.945312 -8.863281 13.46875 -9.1875 C 12.988281 -9.519531 12.175781 -9.890625 11.03125 -10.296875 C 9.894531 -10.703125 9 -11.078125 8.34375 -11.421875 C 6.707031 -12.273438 5.410156 -13.238281 4.453125 -14.3125 C 3.492188 -15.394531 3.015625 -16.820312 3.015625 -18.59375 C 3.015625 -21.257812 4.046875 -23.332031 6.109375 -24.8125 C 8.179688 -26.300781 10.976562 -27.046875 14.5 -27.046875 Z M 14.5 -27.046875 "/></g></g></g></svg>